HIERARCHY
ROOT hip
{
	OFFSET 0.000000 0.000000 0.000000
	CHANNELS 6 Xposition Yposition Zposition Zrotation Yrotation Xrotation 
	JOINT lhipjoint
	{
		OFFSET 0.000000 0.000000 0.000000
		CHANNELS 3 Zrotation Yrotation Xrotation
		JOINT lfemur
		{
			OFFSET 1.363060 -1.794630 0.839290
			CHANNELS 3 Zrotation Yrotation Xrotation
			JOINT ltibia
			{
				OFFSET 2.448110 -6.726130 0.000000
				CHANNELS 3 Zrotation Yrotation Xrotation
				JOINT lfoot
				{
					OFFSET 2.562200 -7.039590 0.000000
					CHANNELS 3 Zrotation Yrotation Xrotation
					JOINT ltoes
					{
						OFFSET 0.157640 -0.433110 2.322550
						CHANNELS 3 Zrotation Yrotation Xrotation
						End Site
						{
							OFFSET 0.000000 0.000000 0.000000
						}
					}
				}
			}
		}
	}
	JOINT rhipjoint
	{
		OFFSET 0.000000 0.000000 0.000000
		CHANNELS 3 Zrotation Yrotation Xrotation
		JOINT rfemur
		{
			OFFSET -1.305520 -1.794630 0.839290
			CHANNELS 3 Zrotation Yrotation Xrotation
			JOINT rtibia
			{
				OFFSET -2.542530 -6.985550 0.000000
				CHANNELS 3 Zrotation Yrotation Xrotation
				JOINT rfoot
				{
					OFFSET -2.568260 -7.056230 0.000000
					CHANNELS 3 Zrotation Yrotation Xrotation
					JOINT rtoes
					{
						OFFSET -0.164730 -0.452590 2.363150
						CHANNELS 3 Zrotation Yrotation Xrotation
						End Site
						{
							OFFSET 0.000000 0.000000 0.000000
						}
					}
				}
			}
		}
	}
	JOINT lowerback
	{
		OFFSET 0.000000 0.000000 0.000000
		CHANNELS 3 Zrotation Yrotation Xrotation
		JOINT upperback
		{
			OFFSET 0.028270 2.035590 -0.193380
			CHANNELS 3 Zrotation Yrotation Xrotation
			JOINT thorax
			{
				OFFSET 0.056720 2.048850 -0.042750
				CHANNELS 3 Zrotation Yrotation Xrotation
				JOINT lowerneck
				{
					OFFSET 0.000000 0.000000 0.000000
					CHANNELS 3 Zrotation Yrotation Xrotation
					JOINT upperneck
					{
						OFFSET -0.054170 1.746240 0.172020
						CHANNELS 3 Zrotation Yrotation Xrotation
						JOINT head
						{
							OFFSET 0.104070 1.761360 -0.123970
							CHANNELS 3 Zrotation Yrotation Xrotation
							End Site
							{
								OFFSET 0.000000 0.000000 0.000000
							}
						}
					}
				}
				JOINT lclavicle
				{
					OFFSET 0.000000 0.000000 0.000000
					CHANNELS 3 Zrotation Yrotation Xrotation
					JOINT lhumerus
					{
						OFFSET 3.362410 1.200890 -0.311210
						CHANNELS 3 Zrotation Yrotation Xrotation
						JOINT lradius
						{
							OFFSET 4.983000 -0.000000 -0.000000
							CHANNELS 3 Zrotation Yrotation Xrotation
							JOINT lwrist
							{
								OFFSET 3.483560 -0.000000 -0.000000
								CHANNELS 3 Zrotation Yrotation Xrotation
								JOINT lhand
								{
									OFFSET 0.000000 0.000000 0.000000
									CHANNELS 3 Zrotation Yrotation Xrotation
									JOINT lfingers
									{
										OFFSET 0.715260 -0.000000 -0.000000
										CHANNELS 3 Zrotation Yrotation Xrotation
										End Site
										{
											OFFSET 0.000000 0.000000 0.000000
										}
									}
								}
								JOINT lthumb
								{
									OFFSET 0.000000 0.000000 0.000000
									CHANNELS 3 Zrotation Yrotation Xrotation
									End Site
									{
										OFFSET 0.000000 0.000000 0.000000
									}
								}
							}
						}
					}
				}
				JOINT rclavicle
				{
					OFFSET 0.000000 0.000000 0.000000
					CHANNELS 3 Zrotation Yrotation Xrotation
					JOINT rhumerus
					{
						OFFSET -3.136600 1.374050 -0.404650
						CHANNELS 3 Zrotation Yrotation Xrotation
						JOINT rradius
						{
							OFFSET -5.241900 -0.000000 -0.000000
							CHANNELS 3 Zrotation Yrotation Xrotation
							JOINT rwrist
							{
								OFFSET -3.444170 -0.000000 -0.000000
								CHANNELS 3 Zrotation Yrotation Xrotation
								JOINT rhand
								{
									OFFSET 0.000000 0.000000 0.000000
									CHANNELS 3 Zrotation Yrotation Xrotation
									JOINT rfingers
									{
										OFFSET -0.622530 -0.000000 -0.000000
										CHANNELS 3 Zrotation Yrotation Xrotation
										End Site
										{
											OFFSET 0.000000 0.000000 0.000000
										}
									}
								}
								JOINT rthumb
								{
									OFFSET 0.000000 0.000000 0.000000
									CHANNELS 3 Zrotation Yrotation Xrotation
									End Site
									{
										OFFSET 0.000000 0.000000 0.000000
									}
								}
							}
						}
					}
				}
			}
		}
	}
}
MOTION
Frames: 5
Frame Time: 0.008333
28.604586 18.804831 0.139412 7.126088 83.276395 -0.838705 6.267658 1.278514 -1.011198 -23.724681 3.910851 -18.854595 2.398242 10.429985 29.597248 1.459801 4.594041 23.196778 0.345900 -3.778900 -10.455500 -11.965010 -2.273392 -6.338683 18.730892 -7.244906 9.642922 -9.277554 -15.396473 56.841778 -6.166670 7.588625 41.052381 -0.067800 1.680300 -4.623000 -0.856513 4.001918 12.008333 -0.306957 5.694935 -0.201486 -4.982585 4.412058 12.784807 1.463016 -1.971954 -8.409048 2.039000 -0.781478 24.454451 -0.781900 0.582000 7.874300 -1.404399 1.842746 3.659288 -69.056898 -14.244502 25.131620 4.143329 -31.676657 -2.596690 0.110448 1.382258 31.630378 12.544846 0.223478 -0.241800 -7.125000 0.000000 0.000000 -10.398500 28.851600 4.152500 -0.215502 0.936304 5.184926 77.710122 7.794928 13.337780 -6.855057 29.172984 -1.997573 -0.038557 -2.381771 11.121532 -4.757017 5.899752 -0.745800 7.125000 0.000000 0.000000 15.589600 -21.796400 9.018000 
28.703597 18.834683 0.125083 6.659751 83.175254 -1.097421 6.295479 1.310278 -1.069305 -23.780320 4.035776 -18.553683 2.356698 10.365389 29.375111 1.427850 4.587020 22.918783 0.333000 -3.708600 -10.258300 -12.034903 -2.355329 -6.202571 18.933689 -6.923096 7.997087 -9.611585 -15.692128 58.156474 -6.047924 7.970975 39.997393 -0.079800 1.822800 -5.016100 -0.783460 3.917971 12.146318 -0.291881 5.570278 -0.196929 -4.998442 4.356695 12.718605 1.479370 -1.966410 -8.330305 2.031780 -0.766891 24.471758 -0.783000 0.588700 7.874000 -1.419279 1.867006 3.660642 -69.048023 -14.699374 26.402823 5.252289 -32.754990 -2.838758 0.125311 1.467809 30.335498 13.246116 0.063643 -0.319500 -7.125000 0.000000 0.000000 -9.831000 28.591900 3.981000 -0.265264 0.920009 5.169546 77.703665 8.078730 12.557774 -5.985316 28.353708 -1.850439 -0.048104 -2.290762 11.909460 -4.465243 5.784773 -0.686400 7.125000 0.000000 0.000000 15.814300 -22.003100 9.080600 
28.800519 18.864039 0.111152 5.779222 83.057369 -1.735406 6.323795 1.353633 -1.124099 -23.780787 4.177769 -18.309301 2.313821 10.303816 29.155105 1.404264 4.557236 22.643517 0.331000 -3.697700 -10.227800 -12.113228 -2.434175 -6.062419 19.216846 -6.591092 6.307223 -9.913066 -15.966666 59.360294 -5.963940 8.579814 39.009598 -0.097900 2.017300 -5.553500 -0.633707 3.837784 12.251671 -0.278122 5.451213 -0.190509 -5.082710 4.316029 12.684535 1.595588 -1.985339 -8.288141 2.008010 -0.796173 24.482375 -0.818900 0.584500 7.876400 -1.444618 1.910166 3.656681 -68.954082 -15.141485 27.733338 6.434654 -33.856859 -3.106149 0.147802 1.546182 28.917732 14.099251 -0.340686 -0.472400 -7.125000 0.000000 0.000000 -9.142000 28.078900 3.807600 -0.299856 0.901051 5.154351 77.703060 8.412456 11.739039 -5.107820 27.524502 -1.712722 -0.063066 -2.200304 12.737850 -4.222290 5.704692 -0.638000 7.125000 0.000000 0.000000 16.005800 -22.172700 9.134700 
28.894854 18.892498 0.097519 4.498335 82.953939 -2.748776 6.354479 1.409170 -1.171169 -23.724952 4.266738 -18.099688 2.272042 10.248345 28.940437 1.381061 4.543811 22.395624 0.320100 -3.636600 -10.056500 -12.196148 -2.508612 -5.916975 19.577464 -6.277528 4.575284 -10.184328 -16.223498 60.459180 -5.900966 9.379574 38.039410 -0.115900 2.195100 -6.045200 -0.423873 3.750080 12.352842 -0.259392 5.321317 -0.187418 -5.145894 4.268090 12.608191 1.681919 -2.005979 -8.171040 1.988071 -0.820415 24.485278 -0.842700 0.579500 7.848600 -1.481278 1.935629 3.653512 -68.801001 -15.480609 29.222114 7.770856 -35.067178 -3.422904 0.172017 1.632640 27.271018 15.044715 -0.816198 -0.668300 -7.125000 0.000000 0.000000 -8.390100 27.472700 3.609200 -0.323343 0.901380 5.148012 77.650041 8.676661 11.045398 -4.358175 26.784543 -1.599355 -0.072375 -2.124472 13.437586 -4.029864 5.568041 -0.594800 7.125000 0.000000 0.000000 16.165200 -22.381600 9.152500 
28.987895 18.921057 0.084483 3.372580 82.842783 -3.595685 6.388955 1.462868 -1.221954 -23.689936 4.365663 -17.901433 2.227516 10.188445 28.712252 1.359720 4.526249 22.148043 0.317800 -3.623700 -10.020200 -12.272635 -2.585051 -5.762541 19.928732 -5.935326 2.839550 -10.431869 -16.462076 61.441243 -5.851234 10.130659 37.162285 -0.127100 2.298000 -6.330000 -0.248437 3.651082 12.440137 -0.237560 5.180684 -0.185364 -5.158653 4.202641 12.529130 1.737798 -2.032386 -8.058151 1.947325 -0.841936 24.492799 -0.875000 0.574000 7.828800 -1.517554 1.953573 3.647715 -68.643164 -15.733961 30.713409 9.236452 -36.366121 -3.798443 0.196510 1.732784 25.530708 16.089397 -1.265331 -0.887300 -7.125000 0.000000 0.000000 -7.574700 26.867300 3.361300 -0.336047 0.904554 5.141026 77.548359 8.956169 10.374254 -3.651596 26.044698 -1.492815 -0.076431 -2.047019 14.182126 -3.813512 5.405814 -0.548500 7.125000 0.000000 0.000000 16.342300 -22.617500 9.168900 
